<?xml version="1.0" encoding="utf-8"?>
<!-- Generator: Adobe Illustrator 26.3.1, SVG Export Plug-In . SVG Version: 6.00 Build 0)  -->
<svg version="1.1" id="Layer_1" xmlns="http://www.w3.org/2000/svg" xmlns:xlink="http://www.w3.org/1999/xlink" x="0px" y="0px"
	 viewBox="0 0 590 227.9" style="enable-background:new 0 0 590 227.9;" xml:space="preserve">
<style type="text/css">
	.st0{fill-rule:evenodd;clip-rule:evenodd;fill:#003DA5;}
</style>
<g id="Page-1">
	<g id="Group-10">
		<path id="Fill-5" class="st0" d="M236.8,217.4c-12-6.8-22-16.7-28.9-28.7c-6.9-12.4-10.5-26.4-10.5-40.5s3.6-28.1,10.5-40.5
			c6.8-12.1,16.8-22.1,28.9-29c12.6-7,26.7-10.6,41-10.6s28.5,3.7,41,10.6c12,6.9,22,16.9,28.8,28.9c6.9,12.4,10.5,26.4,10.5,40.5
			s-3.6,28.1-10.5,40.5c-6.8,12-16.7,22-28.8,28.8c-12.6,6.9-26.7,10.5-41,10.5C263.5,228,249.4,224.4,236.8,217.4L236.8,217.4
			L236.8,217.4z M310.7,183.3c8.7-9.2,13.1-21,13.1-35.1s-4.4-26.2-13.1-35.4c-4.2-4.5-9.3-8.1-15-10.5s-11.8-3.5-18-3.4
			c-6.2-0.2-12.3,1-17.9,3.4c-5.7,2.4-10.8,6-14.9,10.5c-8.6,9.3-12.9,21.1-12.9,35.4s4.3,25.9,12.9,35.1c4.2,4.5,9.2,8.1,14.9,10.5
			c5.7,2.4,11.8,3.5,17.9,3.4c6.2,0.2,12.3-1,18-3.4C301.3,191.4,306.4,187.8,310.7,183.3L310.7,183.3z"/>
		<polygon id="Fill-6" class="st0" points="384.6,224.6 418.9,224.6 418.9,71.3 384.6,71.3 		"/>
		<path id="Fill-7" class="st0" d="M453.4,135.4c-0.2-12.2,2.6-24.2,8.2-35c5.3-10.1,13.6-18.5,23.7-23.9
			c11.3-5.6,23.8-8.5,36.4-8.5c12.6,0,25.1,2.9,36.4,8.5c10.1,5.4,18.4,13.7,23.7,23.9c5.6,10.8,8.4,22.8,8.2,35v89.2h-34.3V138
			c0-12.2-2.9-21.7-8.7-28.6s-14.2-10.3-25.3-10.3s-19.6,3.4-25.3,10.3c-5.8,6.9-8.7,16.4-8.7,28.6v86.6h-34.3L453.4,135.4
			L453.4,135.4L453.4,135.4z"/>
		<path class="st0" d="M85.5,0.1C84.2,0,83,0,81.7,0c-15.4,0-28,5-37.6,14.9c-9.6,9.9-14.4,23.8-14.4,41.7v14.7H0v28.4h29.7v124.9
			H64V99.7h43.1V71.3H64v-15c0-16.5,8.1-25.4,24.2-26.4h49.7v194.7h34.3V29.9V2.1v-2H85.5z"/>
		<polygon id="Fill-6-2" class="st0" points="384.5,34.1 418.9,34.1 418.9,0.1 384.5,0.1 		"/>
	</g>
</g>
</svg>
