<?xml version="1.0" encoding="utf-8"?>
<svg version="1.1" id="Layer_1" xmlns="http://www.w3.org/2000/svg" xmlns:xlink="http://www.w3.org/1999/xlink" x="0px" y="0px"
	 viewBox="0 0 580 300" xml:space="preserve">
<g>
	<defs>
	  	<linearGradient id="primary" x1="50%" y1="0%" x2="50%" y2="100%">
			<stop offset="0%" style="stop-color:rgba(0, 61, 165, 1);" />
			<stop offset="80%" style="stop-color:rgba(0, 61, 165, 0);" />
	  	</linearGradient>
		<linearGradient id="secondary" x1="50%" y1="0%" x2="50%" y2="100%">
			<stop offset="0%" style="stop-color:rgba(228, 0, 43, 1);" />
			<stop offset="80%" style="stop-color:rgba(228, 0, 43, 0);" />
	  </linearGradient>
	</defs>
	<polygon points="0,0 10,0 10,280 0,280" fill="url(#primary)" />
	<polygon points="70,0 80,0 80,260 70,260" fill="url(#secondary)" />
	<polygon points="140,0 150,0 150,240 140,240" fill="url(#primary)" />
	<polygon points="210,0 220,0 220,200 210,200" fill="url(#secondary)" />
	<polygon points="290,0 300,0 300,300 290,300" fill="url(#primary)" />
	<polygon points="360,0 370,0 370,240 360,240" fill="url(#secondary)" />
	<polygon points="430,0 440,0 440,290 430,290" fill="url(#primary)" />
	<polygon points="500,0 510,0 510,180 500,180" fill="url(#secondary)" />
	<polygon points="570,0 580,0 580,220 570,220" fill="url(#primary)" />
</g>
</svg>
